# xmcd
#
# Track frame offsets:
#	150
#	13813
#	31983
#	49525
#	61630
#	80830
#	102024
#	121271
#	140319
#	163336
#	176409
#	196575
#	216915
#
# Disc length: 3028 seconds
#
# Revision: 1
# Processed by: cddbd v1.5.2PL0 Copyright (c) Steve Scherf et al.
# Submitted via: EasyCDDAExtractor 15.2.5.1
#
DISCID=a60bd20d
DTITLE=许岚岚 李俊广 - HIFI二重唱 DTS
DYEAR=2011
DGENRE=
TTITLE0=九九艳阳天
TTITLE1=何日才相会
TTITLE2=冰山上的雪莲
TTITLE3=采红菱
TTITLE4=婚誓
TTITLE5=草原牧歌
TTITLE6=红军阿哥你慢慢走
TTITLE7=想亲亲
TTITLE8=一朵鲜花鲜又鲜
TTITLE9=世上哪有树缠藤
TTITLE10=化蝶
TTITLE11=蝴蝶泉边
TTITLE12=马铃儿响来鸟儿唱
EXTD=
EXTT0=
EXTT1=
EXTT2=
EXTT3=
EXTT4=
EXTT5=
EXTT6=
EXTT7=
EXTT8=
EXTT9=
EXTT10=
EXTT11=
EXTT12=
PLAYORDER=
